<svg height="512pt" viewBox="-1 0 512 512" width="512pt" xmlns="http://www.w3.org/2000/svg"><path d="m390 120h120v272h-120zm0 0"/><path d="m437.136719 504.71875c5.824219 9.703125 19.910156 9.691406 25.726562 0 48.722657-81.207031 47.136719-76.992188 47.136719-82.71875h-120c0 5.734375-1.558594 1.558594 47.136719 82.71875zm0 0"/><path d="m465 0h-30c-24.8125 0-45 20.1875-45 45v45h120v-45c0-24.8125-20.1875-45-45-45zm0 0"/><path d="m180 105c0 11.980469-13.394531 19.101562-23.320312 12.480469l-36.679688-24.453125-36.679688 24.453125c-9.960937 6.640625-23.320312-.53125-23.320312-12.480469v-105h-45c-8.285156 0-15 6.714844-15 15v482c0 8.285156 6.714844 15 15 15h225v-512h-60zm0 0"/><path d="m128.320312 62.519531 21.679688 14.453125v-76.972656h-60v76.972656l21.679688-14.453125c5.039062-3.359375 11.601562-3.359375 16.640624 0zm0 0"/><path d="m285 0h-15v512h15c41.355469 0 75-33.644531 75-75v-362c0-41.355469-33.644531-75-75-75zm0 0"/></svg>